<?xml version="1.0" encoding="UTF-8"?>
<svg version="1.1" xmlns="http://www.w3.org/2000/svg" width="257" height="63">
<path d="M0 0 C1.41015625 1.2890625 1.41015625 1.2890625 3.22265625 3.7265625 C3.22265625 4.7165625 3.22265625 5.7065625 3.22265625 6.7265625 C-6.54042942 9.30027354 -6.54042942 9.30027354 -10.77734375 7.7265625 C-12.12523722 6.74627634 -13.4594709 5.74685115 -14.77734375 4.7265625 C-19.2906266 3.01462763 -24.19732742 3.1886846 -28.71484375 4.7265625 C-29.39546875 5.0565625 -30.07609375 5.3865625 -30.77734375 5.7265625 C-30.44734375 7.3765625 -30.11734375 9.0265625 -29.77734375 10.7265625 C-29.02114746 10.88737305 -28.26495117 11.04818359 -27.48583984 11.21386719 C-24.03833832 11.95484483 -20.59546252 12.71549055 -17.15234375 13.4765625 C-15.96253906 13.72921875 -14.77273437 13.981875 -13.546875 14.2421875 C-6.2047179 15.882893 -1.15250181 17.35140444 4.22265625 22.7265625 C4.82078125 21.9634375 5.41890625 21.2003125 6.03515625 20.4140625 C12.94235213 13.65951184 25.08088954 14.03293878 34.18359375 13.15625 C37.24605994 12.85523233 40.21747743 12.40901347 43.22265625 11.7265625 C43.11651789 9.27431556 43.11651789 9.27431556 42.22265625 6.7265625 C36.83647032 3.89833225 31.1491743 4.18196354 25.22265625 4.7265625 C21.37350468 6.21281462 21.37350468 6.21281462 18.22265625 8.7265625 C16.1985687 8.63653852 14.17721338 8.48015212 12.16015625 8.2890625 C11.05542969 8.18722656 9.95070312 8.08539063 8.8125 7.98046875 C7.95785156 7.89667969 7.10320313 7.81289063 6.22265625 7.7265625 C6.22265625 3.7265625 6.22265625 3.7265625 8.28515625 1.1640625 C16.93009084 -6.00939386 27.51758634 -5.77949535 38.22265625 -5.2734375 C45.32095205 -4.44020516 50.42978076 -2.33791372 55.3515625 3.0625 C58.51427284 7.96287309 57.82252479 13.9783989 57.84765625 19.6015625 C57.93043109 26.9602455 58.05214713 33.65938481 60.22265625 40.7265625 C54.83774984 41.64314231 49.68035436 41.83794409 44.22265625 41.7265625 C43.72765625 39.7465625 43.72765625 39.7465625 43.22265625 37.7265625 C42.31515625 38.2009375 41.40765625 38.6753125 40.47265625 39.1640625 C32.38263142 43.05349751 20.05622685 43.46077788 11.47265625 40.5390625 C7.95366144 38.57654617 5.83766332 36.75016443 3.22265625 33.7265625 C2.58328125 34.4896875 1.94390625 35.2528125 1.28515625 36.0390625 C-3.75338868 41.04147304 -10.9125045 42.09379837 -17.76708984 42.19458008 C-18.94779053 42.17947388 -18.94779053 42.17947388 -20.15234375 42.1640625 C-20.97943848 42.15721436 -21.8065332 42.15036621 -22.65869141 42.14331055 C-30.50825808 41.93811823 -37.95220116 40.67964412 -43.90234375 35.1640625 C-45.77734375 32.7265625 -45.77734375 32.7265625 -46.77734375 29.7265625 C-37.32790555 27.11982093 -37.32790555 27.11982093 -32.77734375 27.7265625 C-31.69453125 28.685625 -31.69453125 28.685625 -30.58984375 29.6640625 C-26.33864342 32.78160941 -21.96642092 32.9541536 -16.77734375 32.7265625 C-13.20302429 31.48941607 -13.20302429 31.48941607 -10.77734375 29.7265625 C-10.80857318 27.75899798 -10.80857318 27.75899798 -11.77734375 25.7265625 C-16.44942148 23.79428344 -21.19441204 23.10660253 -26.15234375 22.3515625 C-33.29665131 21.17052728 -39.15403424 19.89695832 -44.77734375 14.9765625 C-46.32608671 11.49189084 -46.59289015 8.39994798 -45.77734375 4.7265625 C-43.48491254 0.19563964 -40.20174983 -2.47812058 -35.46484375 -4.2109375 C-24.04830942 -6.97022072 -9.85279771 -7.05936715 0 0 Z M31.28515625 21.9765625 C29.92487305 22.14091797 29.92487305 22.14091797 28.53710938 22.30859375 C23.15514662 23.03728322 23.15514662 23.03728322 18.59375 25.8359375 C18.14128906 26.45984375 17.68882813 27.08375 17.22265625 27.7265625 C18.21437722 30.70172542 18.95229942 31.58808705 21.78515625 33.0390625 C28.50139579 34.38231041 34.36413586 33.3532656 40.22265625 29.7265625 C42.92850752 27.76715296 43.18514394 26.90048321 43.91015625 23.5390625 C44.01328125 22.6109375 44.11640625 21.6828125 44.22265625 20.7265625 C39.85314627 20.7265625 35.60900273 21.38291337 31.28515625 21.9765625 Z " fill="#FFF200" transform="translate(46.77734375,21.2734375)"/>
<path d="M0 0 C4.62 0 9.24 0 14 0 C14.33 10.23 14.66 20.46 15 31 C26.04374361 24.00079436 26.04374361 24.00079436 31.6875 18.9375 C38.33779122 14.11085186 46.31830612 15.93953414 54 17 C49.91747127 21.4071831 45.38829225 24.68406237 40.4375 28.0625 C33.81285188 32.53915685 33.81285188 32.53915685 28 38 C36.83353149 45.36494901 45.66392794 52.66602016 54.97265625 59.42578125 C55.64167969 59.94527344 56.31070313 60.46476562 57 61 C57 61.33 57 61.66 57 62 C42.87726784 65.0062424 42.87726784 65.0062424 36.59179688 61.75390625 C32.03076997 58.56003854 27.98206822 54.82103516 24.06958008 50.86865234 C21.25484766 48.32719169 18.08594307 46.20424505 15 44 C14.67 50.27 14.34 56.54 14 63 C9.38 63 4.76 63 0 63 C-0.33 49.8 -0.66 36.6 -1 23 C-1.66 23.99 -2.32 24.98 -3 26 C-5.3203125 26.15234375 -5.3203125 26.15234375 -8.125 25.9375 C-13.50027089 25.78916795 -17.74602023 26.54564049 -22 30 C-24.26306069 33.50209801 -24.30591693 36.62484343 -24.4140625 40.734375 C-24.47207031 42.67763672 -24.47207031 42.67763672 -24.53125 44.66015625 C-24.56270267 46.02343284 -24.59395007 47.38671418 -24.625 48.75 C-24.66320469 50.12893028 -24.70225787 51.50783734 -24.7421875 52.88671875 C-24.83647758 56.25758922 -24.9193284 59.62877612 -25 63 C-29.62 63 -34.24 63 -39 63 C-39 47.49 -39 31.98 -39 16 C-34.38 16 -29.76 16 -25 16 C-24.67 17.32 -24.34 18.64 -24 20 C-23.50113281 19.71125 -23.00226563 19.4225 -22.48828125 19.125 C-15.72222714 15.62657346 -9.5299056 15.34099822 -2 16 C-1.34 16.33 -0.68 16.66 0 17 C0 11.39 0 5.78 0 0 Z " fill="#FFF200" transform="translate(147,0)"/>
<path d="M0 0 C4.06370895 5.71787754 3.48349997 12.14118826 3.5625 18.875 C3.67412042 26.2254114 3.84031728 32.93983238 6 40 C0.91913204 40.84681133 -3.84828377 41.09038099 -9 41 C-9.66 39.68 -10.32 38.36 -11 37 C-11.9075 37.474375 -12.815 37.94875 -13.75 38.4375 C-21.85266907 42.33301397 -34.12800409 42.69372943 -42.75 39.875 C-46.82057994 37.52658849 -48.56022847 36.04087159 -51 32 C-51.69298808 29.15420469 -51.69849355 26.84508347 -51 24 C-47.91717874 19.04880222 -44.4762099 16.68494055 -39 15 C-35.14422361 14.29055995 -31.27191353 13.85537969 -27.375 13.4375 C-25.34044646 13.21328913 -23.30654892 12.98302535 -21.2734375 12.74609375 C-20.38060059 12.64997803 -19.48776367 12.5538623 -18.56787109 12.45483398 C-15.8400223 11.97166396 -13.53066032 11.11161176 -11 10 C-11.11306697 8.04105639 -11.11306697 8.04105639 -12 6 C-17.43968327 3.22166715 -23.03661374 3.45201315 -29 4 C-32.84915157 5.48625212 -32.84915157 5.48625212 -36 8 C-38.00235341 7.96216483 -40.003511 7.84524147 -42 7.6875 C-43.093125 7.60886719 -44.18625 7.53023437 -45.3125 7.44921875 C-46.199375 7.30097656 -47.08625 7.15273438 -48 7 C-48.33 6.34 -48.66 5.68 -49 5 C-46.98062417 0.20398241 -43.68332089 -2.07886459 -39 -4 C-26.48661378 -7.89256478 -10.91482905 -7.85867692 0 0 Z M-22.9375 21.25 C-24.2977832 21.41435547 -24.2977832 21.41435547 -25.68554688 21.58203125 C-31.06750963 22.31072072 -31.06750963 22.31072072 -35.62890625 25.109375 C-36.08136719 25.73328125 -36.53382813 26.3571875 -37 27 C-36.00827903 29.97516292 -35.27035683 30.86152455 -32.4375 32.3125 C-25.72126046 33.65574791 -19.85852039 32.6267031 -14 29 C-11.29414873 27.04059046 -11.03751231 26.17392071 -10.3125 22.8125 C-10.209375 21.884375 -10.10625 20.95625 -10 20 C-14.36950998 20 -18.61365352 20.65635087 -22.9375 21.25 Z " fill="#FFF200" transform="translate(251,22)"/>
</svg>
